<?xml version="1.0" standalone="no"?>
<!DOCTYPE svg PUBLIC "-//W3C//DTD SVG 20010904//EN"
 "http://www.w3.org/TR/2001/REC-SVG-20010904/DTD/svg10.dtd">
<svg version="1.0" xmlns="http://www.w3.org/2000/svg"
 width="460.000000pt" height="460.000000pt" viewBox="0 0 460.000000 460.000000"
 preserveAspectRatio="xMidYMid meet">
<metadata>
Created by potrace 1.11, written by Peter Selinger 2001-2013
</metadata>
<g transform="translate(0.000000,460.000000) scale(0.100000,-0.100000)"
fill="#000000" stroke="none">
<path d="M2008 4516 c-1 -2 -46 -6 -98 -10 -52 -3 -111 -8 -130 -11 -19 -2
-57 -7 -85 -10 -78 -10 -230 -44 -313 -71 -449 -147 -662 -448 -707 -1004 -4
-41 -8 -88 -10 -105 -4 -27 -18 -271 -19 -319 0 -12 -17 -29 -43 -45 -35 -21
-43 -32 -44 -56 0 -16 -2 -39 -4 -50 -4 -21 -13 -134 -14 -172 -1 -13 -7 -23
-15 -23 -33 0 -56 -35 -64 -95 -10 -88 -5 -113 27 -130 20 -10 28 -21 26 -37
-2 -13 -6 -66 -10 -118 -4 -52 -7 -97 -8 -100 0 -3 3 -33 7 -67 7 -55 5 -69
-16 -115 -14 -29 -53 -90 -87 -135 -123 -163 -158 -297 -126 -473 19 -100 136
-367 245 -556 335 -586 568 -776 938 -768 64 1 127 5 139 7 166 40 263 88 399
197 134 108 148 113 269 114 123 0 145 -9 246 -105 179 -169 309 -223 539
-224 137 0 199 12 297 56 135 60 238 147 373 315 150 186 361 561 475 843 52
130 55 143 62 232 7 90 -16 164 -70 231 -176 218 -201 269 -168 344 29 65 32
116 12 245 l-17 116 29 11 30 11 -6 74 c-9 108 -23 132 -74 130 -7 -1 -13 7
-14 16 0 9 -2 23 -3 31 -2 8 -6 38 -10 65 -3 28 -8 59 -10 70 -3 11 -5 33 -5
49 -1 18 -13 40 -37 64 -59 59 -61 63 -79 192 -2 14 -6 63 -10 110 -17 233
-36 354 -76 495 -26 90 -35 113 -86 212 -68 134 -169 251 -288 333 -94 65
-290 148 -388 166 -17 3 -33 7 -37 9 -9 5 -175 33 -240 40 -30 4 -68 8 -85 11
-32 6 -611 14 -617 10z m487 -140 c77 -3 151 -8 165 -10 14 -3 48 -7 75 -10
574 -64 896 -326 970 -791 21 -134 24 -170 16 -184 -5 -8 -48 -13 -132 -16
-816 -28 -2140 -28 -2684 1 -125 6 -133 11 -130 76 16 321 123 554 319 692
182 129 388 194 736 231 25 2 117 7 205 11 88 3 161 7 162 8 3 2 155 -2 298
-8z m1229 -1237 c3 -2 7 -36 10 -74 2 -39 5 -73 5 -78 1 -4 12 -12 26 -17 17
-7 27 -20 32 -41 4 -22 14 -34 34 -41 16 -5 29 -11 29 -12 0 -1 4 -27 10 -57
5 -30 12 -74 15 -99 3 -25 8 -56 10 -70 2 -14 7 -45 10 -70 3 -25 8 -56 10
-70 6 -33 12 -73 20 -140 4 -30 9 -62 10 -71 8 -42 18 -126 17 -144 -1 -11 -9
-25 -19 -32 -9 -8 -18 -25 -19 -40 -1 -30 -36 -63 -66 -63 -18 0 -18 -5 -12
-72 10 -102 12 -122 13 -130 1 -3 43 -29 95 -57 184 -99 237 -191 196 -341
-28 -105 -146 -371 -237 -534 -65 -116 -204 -332 -271 -421 -88 -116 -208
-223 -307 -272 -275 -140 -657 -46 -774 189 -17 34 -31 71 -31 82 0 45 -4 46
-258 47 -133 0 -246 -2 -252 -6 -5 -3 -10 -14 -10 -23 0 -35 -48 -119 -92
-162 -62 -60 -154 -113 -252 -147 -73 -25 -95 -28 -216 -28 -116 0 -145 3
-209 24 -116 38 -223 117 -346 254 -29 32 -141 196 -207 302 -138 221 -266
488 -308 640 -23 82 -19 192 8 245 44 85 158 166 243 172 39 3 45 16 48 108 2
41 4 86 5 100 1 18 -7 30 -26 42 -18 12 -28 26 -28 42 0 14 -11 36 -24 49 -19
19 -24 33 -21 58 2 19 6 70 10 114 7 95 13 161 20 235 3 30 7 84 10 120 18
232 17 228 51 240 15 6 24 17 24 31 0 11 13 33 29 48 24 23 30 37 35 95 3 38
8 71 10 75 5 7 2943 8 2950 0z"/>
<path d="M1437 3054 c-1 -1 -73 -4 -160 -8 -87 -3 -168 -8 -180 -11 -12 -2
-43 -6 -69 -9 -195 -20 -245 -118 -184 -359 36 -139 66 -215 94 -237 47 -37
132 -20 290 57 98 47 165 88 382 231 178 117 316 202 329 202 3 0 23 12 44 26
30 20 36 28 27 39 -22 26 -245 61 -405 64 -55 1 -115 3 -133 5 -18 1 -34 1
-35 0z"/>
<path d="M2890 3053 c-121 -6 -284 -27 -340 -45 -64 -20 -58 -46 20 -82 85
-40 185 -104 382 -244 482 -342 553 -351 655 -83 41 108 60 185 62 258 2 63 0
73 -24 101 -31 38 -93 58 -216 72 -160 19 -400 29 -539 23z"/>
<path d="M820 2304 c-26 -30 -8 -404 19 -404 4 0 45 37 93 83 47 45 120 107
162 137 164 117 201 145 199 155 -4 19 -30 16 -94 -13 -216 -99 -284 -100
-318 -5 -22 63 -38 75 -61 47z"/>
<path d="M3648 2307 c-8 -8 -20 -33 -28 -56 -16 -51 -53 -74 -102 -65 -43 8
-160 50 -220 80 -97 49 -119 20 -33 -42 180 -127 229 -165 308 -242 53 -53 91
-82 96 -76 18 19 35 328 21 383 -7 30 -23 37 -42 18z"/>
<path d="M2193 2239 c-60 -12 -83 -35 -84 -82 -4 -156 0 -270 8 -278 6 -6 19
-10 29 -10 36 -1 149 0 174 0 13 1 28 5 32 9 4 4 9 77 11 161 2 154 2 154 -23
172 -31 23 -104 37 -147 28z"/>
<path d="M1878 2003 c-154 -118 -140 -95 -140 -233 0 -68 1 -70 16 -70 17 0
144 55 211 91 l50 28 1 145 c1 80 1 146 0 145 -1 0 -63 -48 -138 -106z"/>
<path d="M2459 2018 c-1 -40 -2 -99 -3 -130 -1 -32 0 -62 3 -66 11 -18 221
-112 248 -112 14 0 14 -1 17 112 l2 76 -127 96 c-70 53 -130 96 -133 96 -3 0
-6 -33 -7 -72z"/>
<path d="M2810 1751 c0 -95 -14 -83 160 -132 163 -46 225 -54 225 -30 0 8 -7
18 -15 22 -95 53 -209 121 -268 161 -107 72 -102 73 -102 -21z"/>
<path d="M1581 1784 c-24 -19 -92 -64 -150 -101 -241 -152 -230 -168 55 -78
160 51 155 45 144 161 l-5 52 -44 -34z"/>
<path d="M763 1603 c-29 -11 -12 -51 47 -109 61 -61 70 -78 46 -87 -14 -6 -69
-107 -61 -115 2 -3 20 9 40 27 20 17 40 32 45 32 6 1 16 2 23 3 26 4 28 -7 4
-33 -28 -29 -51 -73 -61 -113 -8 -37 8 -36 35 1 31 43 105 70 138 51 15 -9 15
-9 0 -10 -36 0 -102 -100 -114 -171 -8 -44 8 -41 53 11 38 44 78 65 120 63 46
-2 47 -3 17 -22 -61 -38 -119 -120 -129 -183 -3 -21 -3 -38 1 -38 3 0 28 21
55 46 53 50 95 71 148 74 83 6 96 2 154 -54 31 -29 56 -57 56 -62 0 -5 -18
-17 -39 -27 -128 -59 -202 -219 -163 -352 48 -166 230 -258 422 -214 120 28
250 124 287 214 10 25 25 45 33 46 77 6 708 3 717 -4 7 -5 20 -32 29 -60 49
-148 148 -216 299 -204 202 15 377 177 374 346 -2 108 -58 186 -194 266 -15 9
-13 16 26 59 43 47 45 48 104 48 73 1 125 -23 181 -82 44 -47 54 -49 54 -15 0
58 -65 155 -130 194 -28 17 -31 21 -15 22 76 4 123 -17 165 -76 29 -41 40 -44
40 -11 0 56 -53 153 -98 177 -29 16 -9 30 32 23 41 -7 58 -18 85 -53 47 -61
56 -25 15 57 -14 29 -35 57 -46 63 -15 8 -17 13 -9 19 21 12 61 -1 92 -32 16
-17 32 -28 35 -25 11 11 -31 90 -62 116 l-34 28 60 62 c33 34 60 71 60 81 0
26 -29 33 -59 13 -14 -9 -197 -189 -407 -400 -305 -307 -385 -383 -406 -383
-29 0 -86 58 -160 161 -194 272 -247 326 -347 355 -153 46 -264 -23 -440 -270
-84 -118 -195 -246 -213 -246 -15 0 -75 52 -317 278 -102 95 -159 148 -281
262 -74 69 -156 144 -181 168 -39 36 -111 94 -113 91 -1 0 -7 -3 -13 -6z
m1565 -410 c33 -32 86 -80 118 -108 110 -94 176 -160 221 -223 49 -67 93 -187
85 -228 l-4 -24 -42 32 c-55 43 -103 96 -178 198 -125 168 -248 219 -380 157
-74 -35 -100 -58 -187 -172 -100 -131 -110 -143 -146 -179 l-30 -31 -5 40
c-15 110 32 197 190 355 196 197 245 240 274 240 16 0 44 -19 84 -57z"/>
</g>
</svg>
